/* XPM */
static char *_a4f5d065a044c848d2e864922002e536JtSX6POywyjVcxg[] = {
/* columns rows colors chars-per-pixel */
"32 32 212 2 ",
"   c None",
".  c #000000",
"X  c #03060A",
"o  c #0A0906",
"O  c #0C1409",
"+  c #1F150C",
"@  c #161D13",
"#  c #25160A",
"$  c #2C190B",
"%  c #26180C",
"&  c #311D0D",
"*  c #25230E",
"=  c #2E200F",
"-  c #36220E",
";  c #312C0D",
":  c #39290E",
">  c #222913",
",  c #292D14",
"<  c #372713",
"1  c #2B351A",
"2  c #333B1C",
"3  c #373515",
"4  c #373F20",
"5  c #491C0C",
"6  c #471608",
"7  c #4C200E",
"8  c #51230F",
"9  c #463F0F",
"0  c #512411",
"q  c #4B3613",
"w  c #4A3C15",
"e  c #443014",
"r  c #583E19",
"t  c #583913",
"y  c #663914",
"u  c #653A18",
"i  c #3B421A",
"p  c #3B4219",
"a  c #554418",
"s  c #5C551C",
"d  c #474D1B",
"f  c #61471A",
"g  c #7C481C",
"h  c #77471D",
"j  c #7C521D",
"k  c #725517",
"l  c #75611D",
"z  c #70681D",
"x  c #494C25",
"c  c #4B5225",
"v  c #595C25",
"b  c #5D5F28",
"n  c #6E5F27",
"m  c #785822",
"M  c #786B2B",
"N  c #797227",
"B  c #7B7630",
"V  c #7C7A32",
"C  c #87561E",
"Z  c #88621C",
"A  c #926C1E",
"S  c #B46E1C",
"D  c #B5711C",
"F  c #8C5D23",
"G  c #8E6B26",
"H  c #966C26",
"J  c #84792F",
"K  c #9A7427",
"L  c #867030",
"P  c #957B31",
"I  c #997E33",
"U  c #A66D26",
"Y  c #A37525",
"T  c #AB7B2C",
"R  c #A37D2A",
"E  c #B07625",
"W  c #B47A25",
"Q  c #BB7C23",
"!  c #BD7723",
"~  c #C17C1F",
"^  c #A0811A",
"/  c #89822F",
"(  c #968926",
")  c #8B8E39",
"_  c #978932",
"`  c #9F9733",
"'  c #AB832E",
"]  c #BC8225",
"[  c #B38824",
"{  c #A69629",
"}  c #BA9D29",
"|  c #B59825",
" . c #AE8E38",
".. c #AB8634",
"X. c #A49534",
"o. c #AE9932",
"O. c #BA9237",
"+. c #BF9B3C",
"@. c #B89838",
"#. c #A8A639",
"$. c #B5A23C",
"%. c #BFB83C",
"&. c #C9871F",
"*. c #D8961F",
"=. c #C28226",
"-. c #C98C24",
";. c #C58827",
":. c #CA9326",
">. c #C19B2D",
",. c #CC9428",
"<. c #D49A26",
"1. c #D89426",
"2. c #CA9939",
"3. c #C89538",
"4. c #E49A2D",
"5. c #C2A52A",
"6. c #C9A929",
"7. c #DDA222",
"8. c #D8A827",
"9. c #CDB422",
"0. c #D1B621",
"q. c #D5B929",
"w. c #DBBC2D",
"e. c #D8B020",
"r. c #C9A53C",
"t. c #C9A937",
"y. c #C8B73A",
"u. c #CEBE3A",
"i. c #DCBC32",
"p. c #D8B638",
"a. c #E8A727",
"s. c #ECB027",
"d. c #FCBC2C",
"f. c #FAB52C",
"g. c #E4AB3A",
"h. c #E4B33A",
"j. c #E4BD37",
"k. c #FEBE35",
"l. c #FBB93C",
"z. c #DBC228",
"x. c #CFC03E",
"c. c #DCC232",
"v. c #EDCB26",
"b. c #E7CC2D",
"n. c #FFC429",
"m. c #FFCB2E",
"M. c #F4C929",
"N. c #EFD62E",
"B. c #FDD22C",
"V. c #E9CA38",
"C. c #FFC733",
"Z. c #F7C938",
"A. c #ECD03E",
"S. c #FDDC3D",
"D. c #F8D73A",
"F. c #FFE635",
"G. c #FCE63B",
"H. c #FFED37",
"J. c #97A443",
"K. c #9CA243",
"L. c #9DAA47",
"P. c #A0AC46",
"I. c #BCA640",
"U. c #BBB64A",
"Y. c #C4A942",
"T. c #D3AD42",
"R. c #D7BA46",
"E. c #C5B647",
"W. c #E6BC46",
"Q. c #C8CC4E",
"!. c #D8C94A",
"~. c #CDD04E",
"^. c #CBD150",
"/. c #D4D455",
"(. c #C3CC56",
"). c #E1C142",
"_. c #E9CA47",
"`. c #F4CC4A",
"'. c #F5CA45",
"]. c #E9D84A",
"[. c #F2D747",
"{. c #FDDD44",
"}. c #F3D24B",
"|. c #FDDC4F",
" X c #F7D647",
".X c #FFCE55",
"XX c #E0D951",
"oX c #FED554",
"OX c #F5DC54",
"+X c #FEDC53",
"@X c #FFDC59",
"#X c #F7D551",
"$X c #FFE342",
"%X c #FFEB44",
"&X c #FFE44E",
"*X c #FEEC4D",
"=X c #FFF04D",
"-X c #FFFB4D",
";X c #FFF147",
":X c #EEE95B",
">X c #FFE352",
",X c #FFEC52",
"<X c #FFE25B",
"1X c #FFED5C",
"2X c #F7EA5C",
"3X c #FFF353",
"4X c #FFF35F",
"5X c #FFFE5C",
"6X c #FFEA60",
"7X c #FFFF64",
"8X c #FFFF6A",
"9X c #FFF760",
/* pixels */
"                        p.t.r.T.W.#X<XoX                        ",
"                  ' } K t 5 y F T r.[.,X>X}.z.                  ",
"              0 } b.| G K F C C T 2.W.*X3X>X>X!.Z               ",
"            G ].$Xb.F.z.K f & $ < e m +.,X5X>X4X:Xm             ",
"          +.9X+X*X*X{ a . . . . . . . . 3 #.5X3X>X7XP           ",
"        }.<XoX8X~.p . . . . . . . . . . . . 2 ^.5X>X7X .        ",
"      +X@XoX8XL.X . . . . . . X X . . . . . . X L.7X>X1Xr.      ",
"    +X#X.X8XP.. . . . . a { y.u.u.y.( # . . . . . L.5X>X@X_.    ",
"    }._.4X/.. . . . + Y C.B.M.M.v.S.-XOXL . . . . . /.5XoX+X    ",
"  +Xc.Z.5X, . . . 1 g.a.<.<.7.8.e.9.w.{.7X!.o . . . > 5X*XoX&X  ",
"  A.0.;XX.. . . . $.4.E ;.1.C.A.S.N.0.w._.7X) . . . . X.5X|.oX  ",
"  } 9.G.; . . . > h.~ E Q 8.v 2 c o.M.w.b.{.].o . . . * ,X*X>X  ",
"_.G 6.6.. . . . c Z.&.] ! t.2 . . . c.B.s.G.7X, . . . . O.>X*X+X",
"$.y >.l . . . . 4 Z.*.-.W D h.$.B d p # o d v O . . . . m W.[.>X",
" .5 T q . . . . X _.n.:.:.W S 1.k.Z.6.k % . . . . . . . e 2.r.|.",
"+.8 C : . . . . X c %Xn.<.;.W E Q &.a.n.d.y.1 . . . . . < T T R.",
"T.m g $ . . . . . . < [ m.f.1.S U =.:.<.a.B.].@ . . . . $ F F T.",
"`.T U $ . . . . . . . . * ( p.W.g.&.Q :.<.<.H.B . . . . = g u r.",
"<XR.2.r . . . . b K.M t z O O c M o.,.~ :.<.n.X.. . . . a C 6 Y.",
"+X3X`.K . . . . U.8X5X-X-X( . . . . N 1.=.,.d.X.. . . . K U t !.",
"  *X3X`.+ . . . V 7XoX,X{.S.J x 4 v | ~ W ] k.J . . . ; j.A A   ",
"  oX&X5X_ . . . > 7X>X|.&X{.%X{.Z.C.<.] W D '.4 . . . ( H.^ t.  ",
"  |.oX,X5X* . . . B 8X7X>X&XD.Z.s.7.<.,.1.l.V . . . * *Xb.0.OX  ",
"    >XoX5X~.. . . . a E.5X7X5X;XS.C.m.f.;.n . . . . ~.,Xi.A.    ",
"    R.@X*X5XJ.. . . . . s #.!./.!.u.{ q . . . . . L.8X`._.+X    ",
"      @.4X>X5XJ.. . . . . . . o o . . . . . . . J.8XoXoX|.      ",
"        I 7X>X5XQ.1 . . . . . . . . . . . . 2 (.8XoX@X|.        ",
"          P 7X>X5X5X_ = . . . . . . . . 3 ` 3X4X@X6XR.          ",
"            X.2X<X,X5X`.P r & # : q l 5.F.%X X=XOX .            ",
"              | [.@X>X3X`.3.U h C T >.6.q.N.D.@.h               ",
"                  V.|.>X*X).' C 8 7 f G } 5.j                   ",
"                        @X>X_.T.O.' >.q.                        "
};
