/* XPM */
static char *_243d87c662046bcdda4af9f48e97e49dixIBBHvNAkUFAML[] = {
/* columns rows colors chars-per-pixel */
"64 64 243 2 ",
"   c None",
".  c #000000",
"X  c #0B0D09",
"o  c #080806",
"O  c #160808",
"+  c #0E120C",
"@  c #14140C",
"#  c #19170C",
"$  c #181D12",
"%  c #291910",
"&  c #1C2413",
"*  c #1E200F",
"=  c #28280E",
"-  c #32280F",
";  c #282714",
":  c #3A3818",
">  c #302C14",
",  c #4C1C0B",
"<  c #451509",
"1  c #501C0A",
"2  c #482A15",
"3  c #582B12",
"4  c #463716",
"5  c #5B3B1A",
"6  c #593414",
"7  c #653A15",
"8  c #653917",
"9  c #37401E",
"0  c #3B4323",
"q  c #474719",
"w  c #5A4619",
"e  c #5A5F1B",
"r  c #6D4219",
"t  c #68461A",
"y  c #73451B",
"u  c #744A1B",
"i  c #794919",
"p  c #7C531D",
"a  c #78541C",
"s  c #6A551D",
"d  c #776B1D",
"f  c #464B24",
"g  c #4D5225",
"h  c #4E5528",
"j  c #525A29",
"k  c #694D21",
"l  c #785824",
"z  c #6A5A25",
"x  c #5B612C",
"c  c #6A6729",
"v  c #756726",
"b  c #6A6A32",
"n  c #737232",
"m  c #825A1E",
"M  c #85551F",
"N  c #8E6F1E",
"B  c #AC661A",
"V  c #B5731B",
"C  c #BB791B",
"Z  c #B2691B",
"A  c #815522",
"S  c #8A5D24",
"D  c #845C22",
"F  c #905F25",
"G  c #8C6424",
"H  c #846125",
"J  c #926424",
"K  c #936B23",
"L  c #956B29",
"P  c #9B6C28",
"I  c #867929",
"U  c #957224",
"Y  c #94732D",
"T  c #9C742C",
"R  c #9C7726",
"E  c #947B33",
"W  c #A27C25",
"Q  c #A37B2D",
"!  c #A7782A",
"~  c #B37523",
"^  c #B57A25",
"/  c #B97E24",
"(  c #BA7724",
")  c #AC7225",
"_  c #C27C1B",
"`  c #7E8131",
"'  c #9F801A",
"]  c #B5981F",
"[  c #968428",
"{  c #86863A",
"}  c #968B37",
"|  c #8F9236",
" . c #A68425",
".. c #AD8D26",
"X. c #A9872A",
"o. c #BD8325",
"O. c #B68C2A",
"+. c #B39427",
"@. c #B49529",
"#. c #B99B28",
"$. c #AD8532",
"%. c #AA8633",
"&. c #B28A33",
"*. c #B68834",
"=. c #A59B38",
"-. c #BC9436",
";. c #BE9935",
":. c #B99638",
">. c #AE912B",
",. c #AAA53B",
"<. c #BBAB2F",
"1. c #C9861E",
"2. c #D18D1E",
"3. c #D99A1D",
"4. c #E19E1C",
"5. c #D9A41B",
"6. c #E0A51C",
"7. c #C28625",
"8. c #C48B26",
"9. c #C98D24",
"0. c #C98727",
"q. c #CC9326",
"w. c #D39525",
"e. c #D39B26",
"r. c #D99B26",
"t. c #C19C39",
"y. c #C49B38",
"u. c #D08921",
"i. c #C2A42A",
"p. c #C9AE2A",
"a. c #C6AC26",
"s. c #DBA326",
"d. c #D4AC21",
"f. c #DDAB27",
"g. c #DCAC2A",
"h. c #D5BB26",
"j. c #DAB927",
"k. c #DAB428",
"l. c #D6BC29",
"z. c #D8BD2B",
"x. c #D6B426",
"c. c #C7A33C",
"v. c #CAA53B",
"b. c #CCA539",
"n. c #D6A83D",
"m. c #D9B935",
"M. c #CAB733",
"N. c #E4AB26",
"B. c #E4A928",
"V. c #E7B72A",
"C. c #F5BE2A",
"Z. c #F8BC2A",
"A. c #E3A935",
"S. c #EABB32",
"D. c #E8B934",
"F. c #F2BA33",
"G. c #DCC32A",
"H. c #DEC233",
"J. c #D6C13B",
"K. c #E4CB2A",
"L. c #ECC227",
"P. c #FBC02B",
"I. c #ECD32C",
"U. c #E1C236",
"Y. c #E4C43A",
"T. c #ECC63A",
"R. c #E9C93E",
"E. c #E8C835",
"W. c #F2CC32",
"Q. c #F4C53A",
"!. c #F3CD3C",
"~. c #F9C736",
"^. c #F4D33C",
"/. c #FEDB3A",
"(. c #F8D736",
"). c #ECD433",
"_. c #FEE33D",
"`. c #FFEA3B",
"'. c #FFF937",
"]. c #999844",
"[. c #8A8B41",
"{. c #AD9D41",
"}. c #9CA049",
"|. c #A8A847",
" X c #B7AE42",
".X c #A8B04B",
"XX c #BAB34A",
"oX c #AFB950",
"OX c #D7AB40",
"+X c #C7B94A",
"@X c #DAB642",
"#X c #DEBC45",
"$X c #D7B340",
"%X c #CBAD40",
"&X c #B8C24F",
"*X c #C9C64F",
"=X c #D6D656",
"-X c #D0CC50",
";X c #ECCB43",
":X c #E7C848",
">X c #F2CC46",
",X c #F3CE4A",
"<X c #F8CA48",
"1X c #E9D749",
"2X c #F2D245",
"3X c #F8D543",
"4X c #FADA45",
"5X c #F4D44B",
"6X c #FDD44E",
"7X c #F5D94B",
"8X c #FEDD4E",
"9X c #F0DD45",
"0X c #FFCF52",
"qX c #EAD852",
"wX c #F4D552",
"eX c #FED554",
"rX c #FEDC52",
"tX c #FFDC59",
"yX c #FAD856",
"uX c #E1CB50",
"iX c #DFE458",
"pX c #FFE543",
"aX c #FFED45",
"sX c #FFE34D",
"dX c #FFEA4C",
"fX c #FFF24C",
"gX c #FFF849",
"hX c #EDEA5A",
"jX c #FFE254",
"kX c #FEE45B",
"lX c #FFEB5B",
"zX c #F9E956",
"xX c #FFF353",
"cX c #FFFA53",
"vX c #FFF35C",
"bX c #FFFE5C",
"nX c #F3F35E",
"mX c #DFE360",
"MX c #FFF360",
"NX c #FFFE64",
"BX c #FFFF69",
"VX c #F2F165",
"CX c #FFEA60",
/* pixels */
"                                                      sXjXrXtXtXyXtXyXyXeX                                                      ",
"                                            I.).m.;.X.Q T T Q *.t.v.:X,XjXjXeX5X;XR.                                            ",
"                                        +.a.+.K 8 3 , 6 y A J T $.*.v.@X2XdXdXjXrX5XR.m.                                        ",
"                                    K +.@.R D p p p y 8 u A S L Q &.-.v.@X;XsXsXsXjXjX7XR.h.                                    ",
"                                7 ..G.l.+... .U G D i r 7 u l S L Q $.:.v.@X;XsXsXsX8XjXkXyXM.W                                 ",
"                            , p J._.K.z.p.#... .U G m p i y M J P ! *.t.;.v.@X:XdXjX8XrX8XjXlXqXX.r                             ",
"                          8 =.dX/.m.U.G.G.p.+...+.O.! J u 7 6 5 r k H T t.@X;X>X;XsXsXrXsXrX8XlXbX<.r                           ",
"                      L G :XxX>XR.Y.U.H.z.K.(.k. .s 4 # o . . . . o . . % 4 l t.,XxXfXsXsX8XeX8XeXNX=Xr 1                       ",
"                    $.%.zXCX,X,X;X;Xm.^.aX).[ : . . . . . . . . . . . . . . . . : E qXbXgX8X8XrXrX6XvXnXD 3                     ",
"                  b.c.lXkX0XeX5X>X>XgX9XI # . . . . . . . . . . . . . . . . . . . . @ ` hXbXsX8X8XrX6XlXBXT 7                   ",
"                2X#XtXtXeXeXyX0XjXbX,.* . . . . . . . . . . . . . . . . . . . . . . . . $ |.bXxX8XrX8XeXjXBX%.A                 ",
"              sX7XtXtXeXyXeX0XMXhXj . . . . . . . . . . . . . . . . . . . . . . . . . . . . j hXbX8XeX8XeXjXvX%.Q               ",
"              sXeXtXyXyXeX0XBX=X; . . . . . . . . . . . . . . . . . . . . . . . . . . . . . . & -XbX8X8XeX8XjXkX&.              ",
"            sXeXeXyX0X0X0XBX&Xo . . . . . . . . . . . . . . . . . . . . . . . . . . . . . . . . o &XbX8XrX8XeXlXwXt.            ",
"          jXyX0XtXeXyX0XBXoX. . . . . . . . . . . . : c } |. XXXXX.X} v q o . . . . . . . . . . . . &XbX8X8XrXeXkXuXm.          ",
"          yX,XeXeXeX0XBX=Xo . . . . . . . . . . w a.(._._./.(.(.(.pXdXgX`.m.a O . . . . . . . . . . . =XbX8X8XrXeXtX:X          ",
"        jX;X>X5XeXeXkXVX# . . . . . . . . . % L F.Z.N.s.5.d.x.x.x.h.z.U.;XsXdXt.3 O . . . . . . . . . # nXxX7XrXrXrXeXsX        ",
"        5XY.;X,X,X6XBXf . . . . . . . . o l / B.s.e.N.N.k.x.k.k.h.l.z.G.U.Y.7XvXqX*.2 . . . . . . . . . f NXsX8XrXrXeXsX        ",
"      rXY.Y.;X;X;XbX{.. . . . . . . . o {.A.r.w.q.e.s.s.f.f.k.k.k.k.h.h.U.U.Y.;XjXvX5Xk . . . . . . . . . ,.bX8XsXrXeXeXsX      ",
"      2Xl.Y.Y.R.4XhXX . . . . . . . . ].<XV 8.0.q.w.e.s.s.f.f.k.k.j.j.h.h.U.Y.R.;X6XlXvX: . . . . . . . . o zXxX8X8XjX8XrX      ",
"    kXG.l.U.Y.D.cXd . . . . . . . . 9 lXZ ^ o.7.9.q.q.e.r.3.5.3.5.d.l.l.h.G.H.Y.R.;X>XNXuX. . . . . . . . . v NXsXsXrXrX8XrX    ",
"    ,Xa.G.G.H.^.9XX . . . . . . . . |.F.B ( / o.7.9.q.8.B.^.sXdXpX_.V.d.j.h.l.H.Y.R.>X<XNXg . . . . . . . . o qXfXsXsXrXrX8X    ",
"  lXm.] l.G.z.aXI . . . . . . . . X qXw.o.o.~ / o.8./ D.1X].n b n ].1X(.d.j.h.z.U.Y.;X;XbX.X. . . . . . . . . I xX8XdXsX8XrXrX  ",
"  kX.. .<.l.G._.> . . . . . . . . 0 5X1.8.o.^ ^ / / e.m.& . . . . . $ <.(.d.l.h.l.U.Y.Y.sXqXo . . . . . . . . = wX;XsXsXsXsXeX  ",
"  qXK  .+.i.I.p.. . . . . . . . . x 8X1.q.O.7./ ^ ) F.=.. . . . . . . . J.L.z.K.K.G.E.Y.!.zX> . . . . . . . . . :.>X:XsXsXjX8X  ",
"  %Xi R  .+.W.d . . . . . . . . . b pX2.q.9.8.o.^ ^ C Y.}.; . . . . . . #.'.S.V.g.D.).pXaXBXg . . . . . . . . . z <X@X:XsXdXrX  ",
"vX&.r N W  .k.q . . . . . . . . . x dX3.e.q.9.8.o.^ ) V <XqX|.n ; o . . - [ s 2 2 5 l } |.].# . . . . . . . . . : OXy.@X;XdXjXeX",
"vXU 7 G K W @.# . . . . . . . . . : sX3.e.e.q.9.8.o./ ~ B 7.D.8XqX-X].c $ . . . . . . . . . . . . . . . . . . . O t.y.n.@X2XsXeX",
"lXa 7 p m W U . . . . . . . . . . o qXC.e.e.e.q.9.8.o.^ ^ / ^ C 2.B.~./.I.#.w O . . . . . . . . . . . . . . . . . T t.-.v.@X5XeX",
"tXu 3 u m P H . . . . . . . . . . . | cX3.f.r.e.q.8.8.o.^ ^ o.o.0.9.1.q.B.Z.Z.O.u 2 + . . . . . . . . . . . . . . D *.%.-.c.#XrX",
"yXD 8 8 y K t . . . . . . . . . . . + hX(.N.s.e.e.q.8.8.o.^ ^ o.o.9.q.q.e.e.N.P.C.f.y.n . . . . . . . . . . . . . k ! Q &.-.v.rX",
"wXG l 8 7 M t . . . . . . . . . . . . 0 5XZ.Z.s.e.q.q.8.o.o.^ ^ o.o.8.q.q.e.s.s.V.V.C.dXoX. . . . . . . . . . . . k P L Q %.;.eX",
"yXQ S A r y 5 . . . . . . . . . . . . . ; T r.Z.N.e.e.q.9.7.o.^ / o.7.9.9.q.e.s.s.s.x.5.cX}.. . . . . . . . . . . 5 F S P T &.yX",
"eX*.Y J A i 3 . . . . . . . . . . . . . o o % L P.Z.r.8.8.8.7.o.^ / o.7.8.q.e.e.s.s.f.g.5.bXf . . . . . . . . . . 6 A A G G Q yX",
"tXv.%.Q G J 8 . . . . . . . . . . . . . . . . . 4 <.(./.S.w._ V ~ ~ ^ o.8.9.9.e.e.s.s.g.5._.XX. . . . . . . . . . 5 y u D A T eX",
"jX#X;.*.T P l . . . . . . . . . . . . . . . . . . . = I  X,XeX<XA.8.B ) o.O.8.9.e.e.s.s.f.V.9X@ . . . . . . . . . u i 8 u y Y kX",
"rX5Xm.t.&.Q L O . . . . . . . . . > 0 : ; O . o # - . . . & j [..XuX;XA.) ( 8.9.q.e.e.s.N.6.jX0 . . . . . . . . O G p r 8 8 T lX",
"tXjX7X@Xt.&.*.- . . . . . . . . : BXbXNX6Xc.Q O.b._.<.. . . . . . + j ,.W.7.^ o.9.9.q.s.s.3.sXg . . . . . . . . - W m a r , %.NX",
"  rXzX4X@Xt.n.w . . . . . . . . g NXjXsXxXcXcXpX/./.z.. . . . . . . . . e p./ o.8.9.q.w.e.3.8Xh . . . . . . . . t @.G m p , :.  ",
"  8XsXzX5X$XOXT . . . . . . . . : vXjXrXsXsXsX4X!.!.pXq . . . . . . . . . @.0./ o.8.9.q.e.3.rXf . . . . . . . . R #.U G p 8 uX  ",
"  eX8XsXdX7X@XOX* . . . . . . . + zXjXeXsXsXsXsX3X!.(.9Xg . . . . . . . [ x.) ^ / o.8.q.9.3.5X$ . . . . . . . * k.+.R R p G lX  ",
"  rXrX8XsXdX5X8Xl . . . . . . . . +XbXeX8X8XjXsXdX3XQ./.fX+X{ n b b { +XW.8./ ^ ^ / o.8.7.F.*X. . . . . . . . I (.@... .p #.vX  ",
"    rXsXjXsXdXsX@X. . . . . . . . n NXeXrXrX8X8XsXsX3X!.Q./.dXdXdXsX(.B.0.8.8.o.^ ^ / 8.Z 4X{ . . . . . . . o K.I.a.#...N :X    ",
"    sXeX8X8XsXsXbXz . . . . . . . X hXlXeXrXrX8X8XdXsX3X>XE.V.N.6.3.3.r.e.q.9.o.o.^ ^ ~ u.hX& . . . . . . . c `.G.G.p...+.kX    ",
"      8XeX8XsXsXcXqXo . . . . . . . g BXjXrXeXjXrXsXsXsX3X!.Q.E.S.B.f.s.e.e.q.0.8.o.^ B jXb . . . . . . . X 1X^.H.G.G.] :X      ",
"      sXrXrXrXrX8XbX| . . . . . . . . { vXlXlX6X8XrXsXjXsX3X!.Q.S.D.V.B.s.e.e.9.8.8._ 0X}.. . . . . . . . } gXY.Y.G.G.h.wX      ",
"      sXjXeX8XrX8XdXNX: . . . . . . . . z OXzXNXjX8X8XsXdX4X3X!.Q.S.V.B.B.s.e.s.s.e.@X[.. . . . . . . . : bX>XR.Y.Y.l.;XkX      ",
"        4XeXrX8X8X8XcXhX@ . . . . . . . . O 8 v.vXlXjXjX8XsX8X3X!.T.S.V.B.B.C.B.^ S 4 . . . . . . . . + hXzX>X;XR.Y.Y.jX        ",
"          #XkXeXrXjX8XbX*X. . . . . . . . . . O H E.gXcXbXbXcXcXfXaXpXpX`.~...5 O . . . . . . . . . . *XBX0X,X>X;XY.7X          ",
"          c.:XlXeX8XrX8XbX.X. . . . . . . . . . . # e d =.XX+X*X+XXX X[ d : . . . . . . . . . . . . .XBX0XyXeX5X;X5XjX          ",
"            Q wXlX6XrX8X8XbX.X. . . . . . . . . . . . . . . . . . . . . . . . . . . . . . . . . . .XBX0X0XyXyXeX,XsX            ",
"              Y vXjXeX8XrX8XbX*X@ . . . . . . . . . . . . . . . . . . . . . . . . . . . . . . $ *XBX0XyXeXyXyX0XrX              ",
"              M Y NXjX6XrXrX8XbXiX0 . . . . . . . . . . . . . . . . . . . . . . . . . . . . f mXBXeXyXtX0XtXyXrXsX              ",
"                7 Y BXjX7XrX8X8XxXbX| + . . . . . . . . . . . . . . . . . . . . . . . . @ | BXCX0XyX0XeXtXtX:X8X                ",
"                  < Y NXjXeXeXsX8XdXbXqXc o . . . . . . . . . . . . . . . . . . . . X n qXbX5XeXtXeXeXtXkX@X#X                  ",
"                    1 Y NXlX6XrXjX8X8XxXbX$Xv % . . . . . . . . . . . . . . . . > I :XgX8X;X,XeXeX0XkXCX%Xt.                    ",
"                      7 U hXlXeXeXsXrXsXsXsX6Xn.E 5 - X . . . . . . . . # 4 v p.^.aX(.Y.;X;X>X,XeXMXqX$.&.                      ",
"                          N uXlXkX7X8X8XjXdX5X@XOXn.*.J l 8 2 6 t t m U +.p.W.I.K.z.H.Y.R.Y.;X8XvX%XL                           ",
"                            W M.zXtXrX8XsXsXdX5X@Xy.&.! P F M y m J R W  ...+.i.x.G.G.H.m.^.gX:XY y                             ",
"                                h.;XrXkXjX8XsXdX5X@Xt.&.Q G D 8 8 y p m K R  .+.<.l.G.E._.R. .6                                 ",
"                                  h.U.;X7XjXsXsXjX5Xm.t.&.Q G A r 8 u p H N R  ...i.G.G...r <                                   ",
"                                        ;X5XeXeXdXdX5X@X;.$.T S l 8 6 8 r u p U ..@...D                                         ",
"                                            wXeXeXrXjX5X#Xc.&.T S M y u K  .#.p.i. .                                            ",
"                                                    eXtXtXtXyXwX5X,X2X4X^.(.                                                    "
};
