/* XPM */
static char *f327c0d6609a4532d229d6461cd42507HlYM1RhEZ1TOP6P2[] = {
/* columns rows colors chars-per-pixel */
"16 16 167 2 ",
"   c None",
".  c black",
"X  c #000001",
"o  c #000003",
"O  c #020304",
"+  c #000406",
"@  c #131409",
"#  c #18160B",
"$  c #071711",
"%  c #221D0A",
"&  c #3A160B",
"*  c #3B170B",
"=  c #3D180B",
"-  c #3D180C",
";  c #2B2B0F",
":  c #37280B",
">  c #332F08",
",  c #37330F",
"<  c #2E2E12",
"1  c #312C10",
"2  c #393C13",
"3  c #3A3B15",
"4  c #3A391A",
"5  c #43220C",
"6  c #43220D",
"7  c #40370E",
"8  c #5A310F",
"9  c #603716",
"0  c #3F421A",
"q  c #3A421C",
"w  c #47440F",
"e  c #414010",
"r  c #504E1B",
"t  c #584A18",
"y  c #66441B",
"u  c #68451A",
"i  c #745F1A",
"p  c #61621A",
"a  c #766616",
"s  c #70711F",
"d  c #585123",
"f  c #676527",
"g  c #776625",
"h  c #756A23",
"j  c #736C21",
"k  c #737025",
"l  c #787526",
"z  c #7A7732",
"x  c #797D31",
"c  c #8D791E",
"v  c #957519",
"b  c #90781B",
"n  c #A67E1F",
"m  c #8C5A23",
"M  c #8D5A23",
"N  c #8E6527",
"B  c #986F2A",
"V  c #9E7426",
"C  c #9E7527",
"Z  c #9B7D23",
"A  c #91782A",
"S  c #9C7230",
"D  c #937931",
"F  c #AC7B25",
"G  c #AB772F",
"H  c #A67F2E",
"J  c #B87F22",
"K  c #B37C28",
"L  c #AA7831",
"P  c #998527",
"I  c #9A932E",
"U  c #96883C",
"Y  c #8F963C",
"T  c #959E3E",
"R  c #A9842E",
"E  c #B9882D",
"W  c #B1972E",
"Q  c #B3962E",
"!  c #BA9429",
"~  c #AE8E30",
"^  c #AB8C36",
"/  c #A19E3F",
"(  c #B59031",
")  c #BFB73C",
"_  c #CC8E26",
"`  c #D78F2D",
"'  c #C9982F",
"]  c #CA9A3B",
"[  c #CD9A3A",
"{  c #E08F29",
"}  c #E59E27",
"|  c #E89F27",
" . c #C1A127",
".. c #C9A822",
"X. c #CBAE2B",
"o. c #DCA92E",
"O. c #DBBA2F",
"+. c #C1A038",
"@. c #C4A739",
"#. c #F3A327",
"$. c #F9AB29",
"%. c #FABA2A",
"&. c #FBA831",
"*. c #FEAD34",
"=. c #E3B731",
"-. c #FFC62E",
";. c #F1DD2D",
":. c #FFD937",
">. c #FFE12A",
",. c #FFEE35",
"<. c #FFE83B",
"1. c #FFEB3C",
"2. c #FFF834",
"3. c #FFF73C",
"4. c #FFFF38",
"5. c #8F9A43",
"6. c #93A045",
"7. c #AAA746",
"8. c #BEB84C",
"9. c #CFBA45",
"0. c #C2BE4A",
"q. c #D9B543",
"w. c #E1BF47",
"e. c #B8C04C",
"r. c #BFC850",
"t. c #CACF45",
"y. c #C3C549",
"u. c #C5C64B",
"i. c #C2C14F",
"p. c #C7D151",
"a. c #E8C347",
"s. c #EECC4B",
"d. c #F0C548",
"f. c #F1C549",
"g. c #EDD248",
"h. c #FDD84E",
"j. c #FED852",
"k. c #FFE84B",
"l. c #FFEF4D",
"z. c #FFFF40",
"x. c #FFF04C",
"c. c #FFF14E",
"v. c #FFFD4B",
"b. c #FFE655",
"n. c #FFEC57",
"m. c #FFEE57",
"M. c #FFFB58",
"N. c #FFFA5B",
"B. c #FFFC59",
"V. c #FFFF59",
"C. c #FFFF5B",
"Z. c #FFFD5D",
"A. c #FFFF5D",
"S. c #FFFF61",
"D. c #FFFF63",
"F. c #FFFF64",
"G. c #FFFF65",
"H. c #FFFF66",
"J. c #FFFF67",
"K. c #FFFF68",
"L. c #FFFF6E",
"P. c #FFFF6F",
"I. c #FFFF70",
"U. c #FFFF72",
"Y. c #FFFF73",
"T. c #FFFF76",
"R. c #FFFF7D",
/* pixels */
"          X.C L f.Z.k.          ",
"      N 1.O.9 * u @.S.F.A       ",
"    w.L.t.w . . . . 3 r.Y.^     ",
"  j.L.6.. . e j k < . . T L.a.  ",
"  l.0.. O C -.2.4.c.U . . u.S.  ",
"g.;., . g *._ h c >.F.z . ; Z.b.",
"( v . . W $.K d q a s f . . +.V.",
"m 5 . . r :.} { o.F t + . . y f.",
"[ - . . . : b ' ` } ,.I . . & L ",
"N.H . . 7./ p $ 3 F #.=.. . 8 B ",
"n.V.% . i.R.v.P a J &.^ . > ..9.",
"  S.y.. @ 8.F.Z.z.%.E # . ) <.  ",
"  q.Y.Y . . 0 x l 7 . . 5.K.h.  ",
"    D T.e.1 . . . . 2 p.Y.s.    ",
"      W F.Z.R - 5 Z 3.c.S       ",
"          n.N.] M !  .          "
};
